<?xml version="1.0" standalone="no"?>
<!DOCTYPE svg PUBLIC "-//W3C//DTD SVG 20010904//EN"
 "http://www.w3.org/TR/2001/REC-SVG-20010904/DTD/svg10.dtd">
<svg version="1.0" xmlns="http://www.w3.org/2000/svg"
 width="512.000000pt" height="512.000000pt" viewBox="0 0 512.000000 512.000000"
 preserveAspectRatio="xMidYMid meet">

<g transform="translate(0.000000,512.000000) scale(0.100000,-0.100000)"
fill="#000000" stroke="none">
<path d="M500 4464 c-234 -50 -436 -254 -485 -489 -22 -105 -22 -2725 0 -2830
50 -237 252 -439 491 -490 104 -22 4004 -22 4109 0 181 38 349 168 433 335 75
151 72 67 72 1570 0 1503 3 1419 -72 1570 -84 167 -252 297 -433 335 -102 21
-4015 21 -4115 -1z m4110 -332 c72 -35 114 -75 151 -144 l34 -63 0 -1365 0
-1365 -34 -63 c-38 -70 -69 -100 -145 -140 l-51 -27 -2005 0 -2005 0 -63 34
c-69 37 -109 79 -144 151 l-23 45 0 1365 0 1365 25 50 c43 86 125 154 215 176
17 4 923 6 2015 6 l1985 -2 45 -23z"/>
<path d="M3630 3245 c0 -209 -4 -375 -9 -375 -5 0 -14 14 -21 31 -19 46 -99
123 -158 153 -158 80 -391 72 -545 -18 -74 -44 -154 -136 -196 -228 -62 -134
-66 -161 -66 -463 0 -300 5 -336 69 -470 104 -221 347 -334 601 -280 137 29
258 112 300 205 10 22 22 40 27 40 4 0 8 -54 8 -120 l0 -120 180 0 180 0 0
1010 0 1010 -185 0 -185 0 0 -375z m-187 -457 c71 -31 142 -113 167 -195 17
-54 20 -93 20 -234 0 -92 -5 -192 -11 -221 -34 -161 -144 -258 -295 -258 -129
0 -207 44 -261 147 -46 86 -56 154 -51 359 4 155 7 187 26 235 66 168 237 239
405 167z"/>
<path d="M1122 2560 l-321 -960 192 0 192 0 74 245 74 245 322 0 322 0 74
-245 74 -245 202 0 201 0 -320 960 -320 960 -222 0 -222 0 -322 -960z m660
208 l115 -383 -235 -3 c-129 -1 -237 0 -240 3 -4 4 213 738 225 758 2 4 8 7
12 7 4 0 59 -172 123 -382z"/>
</g>
</svg>
