<?xml version="1.0" encoding="UTF-8"?>
<!DOCTYPE svg PUBLIC "-//W3C//DTD SVG 1.1//EN" "http://www.w3.org/Graphics/SVG/1.1/DTD/svg11.dtd">
<svg xmlns="http://www.w3.org/2000/svg" version="1.1" width="512px" height="512px" style="shape-rendering:geometricPrecision; text-rendering:geometricPrecision; image-rendering:optimizeQuality; fill-rule:evenodd; clip-rule:evenodd" xmlns:xlink="http://www.w3.org/1999/xlink">
<g><path style="opacity:0.987" fill="#fac600" d="M 355.5,56.5 C 349.629,68.9123 344.296,81.579 339.5,94.5C 299.257,77.4291 257.591,72.9291 214.5,81C 200.148,84.0624 186.148,88.229 172.5,93.5C 166.756,81.0133 160.756,68.6799 154.5,56.5C 217.773,30.2478 281.773,28.7478 346.5,52C 349.823,53.0399 352.823,54.5399 355.5,56.5 Z"/></g>
<g><path style="opacity:0.98" fill="#fe9901" d="M 154.5,56.5 C 160.756,68.6799 166.756,81.0133 172.5,93.5C 120.646,116.021 82.9789,153.021 59.5,204.5C 46.5833,199.305 33.5833,194.305 20.5,189.5C 47.9181,127.748 92.5847,83.4151 154.5,56.5 Z"/></g>
<g><path style="opacity:0.987" fill="#fdd402" d="M 355.5,56.5 C 391.807,71.4744 422.807,93.8077 448.5,123.5C 437.175,131.834 425.175,139.167 412.5,145.5C 391.789,123.478 367.455,106.478 339.5,94.5C 344.296,81.579 349.629,68.9123 355.5,56.5 Z"/></g>
<g><path style="opacity:1" fill="#276d8f" d="M 456.5,132.5 C 449.797,139.201 443.464,146.201 437.5,153.5C 436.448,153.351 435.448,153.517 434.5,154C 397.277,176.774 359.944,199.274 322.5,221.5C 317.809,217.803 313.142,214.136 308.5,210.5C 321.433,201.691 334.766,193.358 348.5,185.5C 349.298,185.043 349.631,184.376 349.5,183.5C 370.674,171.081 391.674,158.415 412.5,145.5C 425.175,139.167 437.175,131.834 448.5,123.5C 454.446,120.191 460.446,116.858 466.5,113.5C 468.384,114.693 468.884,116.359 468,118.5C 463.954,123.04 460.121,127.707 456.5,132.5 Z"/></g>
<g><path style="opacity:0.987" fill="#fdd303" d="M 456.5,132.5 C 470.112,150.044 481.445,169.044 490.5,189.5C 477.395,194.219 464.395,199.219 451.5,204.5C 445.594,190.339 437.927,177.339 428.5,165.5C 431.5,161.5 434.5,157.5 437.5,153.5C 443.464,146.201 449.797,139.201 456.5,132.5 Z"/></g>
<g><path style="opacity:1" fill="#c4e2fe" d="M 270.5,149.5 C 206.898,160.593 166.065,197.259 148,259.5C 136.596,325.003 158.096,376.503 212.5,414C 213.833,414.667 215.167,415.333 216.5,416C 253.165,416.5 289.832,416.667 326.5,416.5C 288.67,417.499 250.67,417.832 212.5,417.5C 202.448,417.784 192.448,417.45 182.5,416.5C 124.177,377.145 102.344,322.812 117,253.5C 133.954,200.213 169.454,166.38 223.5,152C 239.053,148.644 254.719,147.811 270.5,149.5 Z"/></g>
<g><path style="opacity:0.995" fill="#d7ebfd" d="M 270.5,149.5 C 300.633,152.409 326.966,163.743 349.5,183.5C 349.631,184.376 349.298,185.043 348.5,185.5C 334.766,193.358 321.433,201.691 308.5,210.5C 296.81,203.269 284.143,198.602 270.5,196.5C 222.691,191.491 187.858,210.491 166,253.5C 148.836,303.717 161.669,344.217 204.5,375C 225.146,387.365 247.146,391.531 270.5,387.5C 306.366,380.981 331.533,360.981 346,327.5C 353.961,305.603 354.461,283.603 347.5,261.5C 358.615,248.241 369.948,235.241 381.5,222.5C 403.109,265.133 404.609,308.467 386,352.5C 372.948,379.382 353.782,400.715 328.5,416.5C 327.833,416.5 327.167,416.5 326.5,416.5C 289.832,416.667 253.165,416.5 216.5,416C 215.167,415.333 213.833,414.667 212.5,414C 158.096,376.503 136.596,325.003 148,259.5C 166.065,197.259 206.898,160.593 270.5,149.5 Z"/></g>
<g><path style="opacity:0.991" fill="#478cb0" d="M 437.5,153.5 C 434.5,157.5 431.5,161.5 428.5,165.5C 412.595,184.316 396.928,203.316 381.5,222.5C 369.948,235.241 358.615,248.241 347.5,261.5C 342.39,246.077 334.057,232.743 322.5,221.5C 359.944,199.274 397.277,176.774 434.5,154C 435.448,153.517 436.448,153.351 437.5,153.5 Z"/></g>
<g><path style="opacity:0.983" fill="#fd4754" d="M 20.5,189.5 C 33.5833,194.305 46.5833,199.305 59.5,204.5C 39.2635,250.103 35.2635,297.103 47.5,345.5C 34.1606,349.169 20.8272,352.836 7.5,356.5C 3.7545,342.692 1.08784,328.692 -0.5,314.5C -0.5,299.5 -0.5,284.5 -0.5,269.5C 2.38058,241.841 9.38058,215.174 20.5,189.5 Z"/></g>
<g><path style="opacity:0.988" fill="#8bc726" d="M 490.5,189.5 C 501.588,215.19 508.588,241.856 511.5,269.5C 511.5,284.5 511.5,299.5 511.5,314.5C 509.818,328.912 507.152,343.245 503.5,357.5C 490.226,353.297 476.892,349.297 463.5,345.5C 475.696,297.124 471.696,250.124 451.5,204.5C 464.395,199.219 477.395,194.219 490.5,189.5 Z"/></g>
<g><path style="opacity:1" fill="#f9c604" d="M 270.5,196.5 C 229.87,205.629 204.037,230.296 193,270.5C 185.35,315.683 200.517,350.85 238.5,376C 248.646,381.326 259.313,385.159 270.5,387.5C 247.146,391.531 225.146,387.365 204.5,375C 161.669,344.217 148.836,303.717 166,253.5C 187.858,210.491 222.691,191.491 270.5,196.5 Z"/></g>
<g><path style="opacity:1" fill="#fdd303" d="M 270.5,196.5 C 284.143,198.602 296.81,203.269 308.5,210.5C 313.142,214.136 317.809,217.803 322.5,221.5C 334.057,232.743 342.39,246.077 347.5,261.5C 354.461,283.603 353.961,305.603 346,327.5C 331.533,360.981 306.366,380.981 270.5,387.5C 259.313,385.159 248.646,381.326 238.5,376C 200.517,350.85 185.35,315.683 193,270.5C 204.037,230.296 229.87,205.629 270.5,196.5 Z"/></g>
<g><path style="opacity:1" fill="#fb8900" d="M 212.5,251.5 C 226.504,249.415 236.338,254.748 242,267.5C 244.659,277.151 241.159,281.651 231.5,281C 228.288,278.269 226.788,274.769 227,270.5C 222.7,265.554 218.033,265.221 213,269.5C 212.56,274.067 210.727,277.9 207.5,281C 200.523,282.528 196.857,279.695 196.5,272.5C 198.059,262.609 203.392,255.609 212.5,251.5 Z"/></g>
<g><path style="opacity:1" fill="#fb8901" d="M 284.5,251.5 C 298.994,249.324 308.827,254.991 314,268.5C 316.161,277.662 312.661,281.829 303.5,281C 300.273,277.9 298.44,274.067 298,269.5C 289.258,263.797 284.258,266.131 283,276.5C 278.748,282.653 274.081,282.986 269,277.5C 267.345,270.147 269.178,263.814 274.5,258.5C 277.55,255.652 280.884,253.318 284.5,251.5 Z"/></g>
<g><path style="opacity:1" fill="#fb8900" d="M 222.5,301.5 C 226.664,301.143 229.831,302.81 232,306.5C 233.069,324.575 242.569,333.075 260.5,332C 272.881,328.091 279.048,319.591 279,306.5C 283.267,300.245 287.933,299.912 293,305.5C 293.923,327.92 283.423,341.753 261.5,347C 239.367,348.511 224.867,338.678 218,317.5C 217.333,313.5 217.333,309.5 218,305.5C 219.397,303.93 220.897,302.596 222.5,301.5 Z"/></g>
<g><path style="opacity:0.978" fill="#97d728" d="M 463.5,345.5 C 476.892,349.297 490.226,353.297 503.5,357.5C 492.669,397.84 473.502,433.507 446,464.5C 443.757,466.282 441.257,466.782 438.5,466C 430.167,459.667 421.833,453.333 413.5,447C 411.718,444.757 411.218,442.257 412,439.5C 437.004,412.612 454.171,381.278 463.5,345.5 Z"/></g>
<g><path style="opacity:0.985" fill="#e41f2d" d="M 47.5,345.5 C 56.8291,381.278 73.9957,412.612 99,439.5C 99.7063,441.971 99.373,444.305 98,446.5C 89.5,453 81,459.5 72.5,466C 69.7431,466.782 67.2431,466.282 65,464.5C 37.215,433.273 18.0484,397.273 7.5,356.5C 20.8272,352.836 34.1606,349.169 47.5,345.5 Z"/></g>
<g><path style="opacity:1" fill="#0182fc" d="M 182.5,416.5 C 192.448,417.45 202.448,417.784 212.5,417.5C 189.502,426.856 184.002,442.523 196,464.5C 201.101,470.127 207.267,473.794 214.5,475.5C 199.83,475.667 185.163,475.5 170.5,475C 152.347,470.154 144.513,458.32 147,439.5C 152.733,422.702 164.566,415.035 182.5,416.5 Z"/></g>
<g><path style="opacity:0.989" fill="#0c93fa" d="M 326.5,416.5 C 327.167,416.5 327.833,416.5 328.5,416.5C 349.784,415.302 361.784,425.136 364.5,446C 364.037,461.936 356.037,471.602 340.5,475C 298.501,475.5 256.501,475.667 214.5,475.5C 207.267,473.794 201.101,470.127 196,464.5C 184.002,442.523 189.502,426.856 212.5,417.5C 250.67,417.832 288.67,417.499 326.5,416.5 Z"/></g>
<g><path style="opacity:1" fill="#f8d212" d="M 198.5,438.5 C 208.11,438.936 210.776,443.436 206.5,452C 197.319,455.325 193.485,452.158 195,442.5C 196.376,441.295 197.542,439.962 198.5,438.5 Z"/></g>
<g><path style="opacity:1" fill="#f8d212" d="M 225.5,438.5 C 235.11,438.936 237.776,443.436 233.5,452C 224.319,455.325 220.485,452.158 222,442.5C 223.376,441.295 224.542,439.962 225.5,438.5 Z"/></g>
<g><path style="opacity:1" fill="#f8d212" d="M 252.5,438.5 C 262.11,438.936 264.776,443.436 260.5,452C 251.319,455.325 247.485,452.158 249,442.5C 250.376,441.295 251.542,439.962 252.5,438.5 Z"/></g>
<g><path style="opacity:1" fill="#f8d212" d="M 279.5,438.5 C 289.11,438.936 291.776,443.436 287.5,452C 278.319,455.325 274.485,452.158 276,442.5C 277.376,441.295 278.542,439.962 279.5,438.5 Z"/></g>
<g><path style="opacity:1" fill="#f8d212" d="M 306.5,438.5 C 316.11,438.936 318.776,443.436 314.5,452C 305.319,455.325 301.485,452.158 303,442.5C 304.376,441.295 305.542,439.962 306.5,438.5 Z"/></g>
</svg>
