<?xml version="1.0" standalone="no"?>
<!DOCTYPE svg PUBLIC "-//W3C//DTD SVG 20010904//EN"
 "http://www.w3.org/TR/2001/REC-SVG-20010904/DTD/svg10.dtd">
<svg version="1.0" xmlns="http://www.w3.org/2000/svg"
 width="512.000000pt" height="512.000000pt" viewBox="0 0 512.000000 512.000000"
 preserveAspectRatio="xMidYMid meet">

<g transform="translate(0.000000,512.000000) scale(0.100000,-0.100000)"
fill="#000000" stroke="none">
<path d="M25 4655 l-25 -24 0 -1631 0 -1631 25 -24 24 -25 1431 0 1431 0 24
25 c33 32 33 78 0 110 l-24 25 -1376 0 -1375 0 0 1281 0 1281 33 -24 c193
-145 1990 -1395 2042 -1421 185 -93 414 -100 609 -21 76 31 74 30 1183 807
508 356 925 647 928 647 3 0 5 -590 5 -1310 l0 -1311 25 -24 c32 -33 78 -33
110 0 l25 24 0 1611 0 1611 -25 24 -24 25 -2511 0 -2511 0 -24 -25z m4935
-278 l0 -143 -1027 -721 c-566 -396 -1050 -734 -1077 -751 -89 -57 -167 -77
-296 -77 -102 0 -124 3 -192 28 -90 34 -23 -12 -1261 856 l-947 664 0 144 0
143 2400 0 2400 0 0 -143z"/>
<path d="M3825 2560 c-190 -30 -348 -112 -481 -252 -105 -109 -168 -223 -206
-372 -18 -71 -21 -121 -25 -421 -5 -328 -6 -342 -28 -391 -33 -75 -84 -125
-175 -174 -45 -24 -92 -57 -105 -72 -80 -95 -42 -248 79 -323 l49 -30 298 -3
297 -3 7 -36 c11 -60 61 -148 113 -200 160 -160 423 -161 583 -1 53 53 103
141 114 201 l7 36 297 3 298 3 49 30 c121 75 159 228 79 323 -13 15 -60 48
-105 72 -91 49 -142 99 -175 174 -22 49 -23 63 -28 391 -5 368 -13 427 -70
557 -78 175 -236 337 -408 418 -132 61 -328 91 -464 70z m271 -171 c75 -18
202 -82 267 -133 100 -81 178 -202 218 -338 19 -66 22 -106 28 -434 l6 -360
38 -77 c49 -98 119 -170 222 -228 44 -25 81 -52 83 -62 2 -9 -10 -31 -26 -47
l-30 -30 -962 0 -962 0 -30 30 c-16 16 -28 38 -26 47 2 10 36 35 78 58 103 55
181 134 228 232 l37 78 6 360 c7 385 11 417 64 534 38 83 110 176 178 231 74
61 200 124 277 139 30 6 64 13 75 15 32 8 177 -2 231 -15z m89 -1891 c-12 -43
-61 -103 -108 -135 -84 -56 -190 -56 -274 0 -47 32 -96 92 -108 135 l-6 22
251 0 251 0 -6 -22z"/>
</g>
</svg>
