<?xml version="1.0" encoding="iso-8859-1"?>
<!-- Generator: Adobe Illustrator 19.0.0, SVG Export Plug-In . SVG Version: 6.00 Build 0)  -->
<svg version="1.1" id="Capa_1" xmlns="http://www.w3.org/2000/svg" xmlns:xlink="http://www.w3.org/1999/xlink" x="0px" y="0px"
	 viewBox="0 0 512 512" style="enable-background:new 0 0 512 512;" xml:space="preserve">
<path style="fill:#64B5F6;" d="M448,170.85v0.5c0,99-80,179.4-178.2,179.4h-24.3l-34,45.6c-9.1,12.2-23.6,19.6-38.9,19.6
	c-4.2,0-8.4-0.6-12.6-1.7c20.3,20.8,48.7,33.7,80,33.7h40l43.2,57.6c3.1,4.1,7.9,6.4,12.8,6.4c1.7,0,3.4-0.3,5.1-0.8
	c6.5-2.2,10.9-8.3,10.9-15.2v-48h48c61.8,0,112-50.2,112-112v-64C512,227.45,485.8,188.85,448,170.85z"/>
<path style="fill:#2196F3;" d="M272,0.05H144c-79.4,0-144,64.6-144,144v32c0,79.4,64.6,144,144,144h16v48c0,6.9,4.4,13,10.9,15.2
	c1.7,0.5,3.4,0.8,5.1,0.8c4.9,0,9.7-2.3,12.8-6.4l43.2-57.6h40c79.4,0,144-64.6,144-144v-32C416,64.65,351.4,0.05,272,0.05z"/>
<g>
</g>
<g>
</g>
<g>
</g>
<g>
</g>
<g>
</g>
<g>
</g>
<g>
</g>
<g>
</g>
<g>
</g>
<g>
</g>
<g>
</g>
<g>
</g>
<g>
</g>
<g>
</g>
<g>
</g>
</svg>
